<svg xmlns="http://www.w3.org/2000/svg" xmlns:xlink="http://www.w3.org/1999/xlink" width="150" height="48" viewBox="0 0 150 48"><defs><style>.a,.c,.d{fill:#fff;}.a{opacity:0;}.b{fill:url(#a);}.d{stroke:rgba(0,0,0,0);stroke-miterlimit:10;}.e{fill:#644b80;}</style><linearGradient id="a" x1="0.504" y1="0.224" x2="0.504" y2="1.347" gradientUnits="objectBoundingBox"><stop offset="0.01" stop-color="#a400d4"/><stop offset="0.71" stop-color="#009ce9"/></linearGradient></defs><rect class="a" width="150" height="48"/><g transform="translate(4 2)"><path class="b" d="M-4486.4,175.449V158.6h5.8c4.1,0,6.206,2.519,6.206,6.12a6,6,0,0,1-1.614,4.522,6.054,6.054,0,0,1-4.866,1.914h-1.8v4.3Zm3.724-7.179h1.44c1.948,0,3.2-.87,3.2-3.414a3.01,3.01,0,0,0-.8-2.456,2.921,2.921,0,0,0-2.4-.893h-1.44Zm11.694,4.76a8.053,8.053,0,0,1-2.173-5.982,8.507,8.507,0,0,1,2.384-6.3,8.508,8.508,0,0,1,6.305-2.355,12.483,12.483,0,0,1,4.4.717v3.427a8.5,8.5,0,0,0-4.4-1.084,4.681,4.681,0,0,0-3.573,1.474,5.53,5.53,0,0,0-1.391,3.941,5.567,5.567,0,0,0,1.241,3.879,4.287,4.287,0,0,0,3.351,1.373,4.541,4.541,0,0,0,2.011-.378v-3.174h-3.154V165.65h6.667v8.174a10.956,10.956,0,0,1-5.71,1.372c-.149.008-.3.012-.449.012A8.076,8.076,0,0,1-4470.98,173.03Zm-29.978,0a8.051,8.051,0,0,1-2.183-5.97,8.5,8.5,0,0,1,2.383-6.3,8.506,8.506,0,0,1,6.342-2.419,12.476,12.476,0,0,1,4.394.718v3.425a8.485,8.485,0,0,0-4.431-1.083,4.685,4.685,0,0,0-3.525,1.524,5.54,5.54,0,0,0-1.378,3.941,5.574,5.574,0,0,0,1.241,3.879,4.293,4.293,0,0,0,3.352,1.373,4.537,4.537,0,0,0,2.011-.378v-3.174h-3.153V165.65h6.614v8.174A10.951,10.951,0,0,1-4495,175.2c-.15.008-.3.012-.45.012A8.081,8.081,0,0,1-4500.958,173.03Zm.5-24.721c0-1.486,1.7-2.859,4.966-3.942h.248a51.6,51.6,0,0,0,15.342,2.015,51.6,51.6,0,0,0,15.342-2.015h.1c3.24,1.084,4.965,2.443,4.965,3.942,0,3.362-9.074,5.982-20.53,5.982S-4500.462,151.659-4500.462,148.309Zm38.336,3.611a.192.192,0,0,1-.068-.136.215.215,0,0,1,.087-.264c1.986-1.071,3.041-2.255,3.041-3.514,0-3.778-9.471-6.914-21.1-6.889s-21.1,3.111-21.1,6.889c0,1.221,1.056,2.442,3.042,3.514a.211.211,0,0,1,.122.133.217.217,0,0,1-.023.181.185.185,0,0,1-.173.126c-3.625-1.4-5.549-3.249-5.549-5.352,0-4.522,10.327-8.136,23.584-8.136h.248c13.207.037,23.584,3.614,23.584,8.136a3.819,3.819,0,0,1-.986,2.484,3.788,3.788,0,0,0,1.31-1.628,2.9,2.9,0,0,0-.236-2.33c-1.825-3.526-10.612-7.241-23.87-7.191s-22.045,3.665-23.87,7.191a2.9,2.9,0,0,0-.235,2.33,3.758,3.758,0,0,0,1.378,1.674.241.241,0,0,1,.149.252.189.189,0,0,1-.149.113h-.087a4.684,4.684,0,0,1-2.955-5.364c1.13-5.491,11.222-9.194,25.708-9.269h.26c14.485.088,24.565,3.727,25.708,9.269a4.684,4.684,0,0,1-2.955,5.364h-.062a.184.184,0,0,1-.161-.1.217.217,0,0,1-.039-.19,11.461,11.461,0,0,1-4.455,2.747h-.025A.192.192,0,0,1-4462.125,151.92Zm8.175-6.079c.534-3.263-1.44-5.856-6.206-8.173-5.227-2.532-11.619-3.1-19.612-3.1h-.782c-7.995.025-14.387.579-19.612,3.1-4.767,2.253-6.741,4.849-6.208,8.11a.2.2,0,0,1-.123.226.186.186,0,0,1-.174-.126c-.869-2.368-.136-6.146,3.427-8.841,4.977-3.4,12.114-5,22.491-5.037h1.154c10.391,0,17.552,1.649,22.518,5.037,3.575,2.695,4.308,6.473,3.425,8.9a.186.186,0,0,1-.173.126A.2.2,0,0,1-4453.951,145.841Z" transform="translate(4507.908 -131.37)"/><path class="c" d="M-4486.023,174.944v-16.85h5.734c4.1,0,6.207,2.519,6.207,6.12a6,6,0,0,1-1.613,4.522,6.057,6.057,0,0,1-4.866,1.914h-1.738v4.294Zm5.163-13.978-1.439.037v6.763h1.439c1.95,0,3.2-.869,3.2-3.413a3.013,3.013,0,0,0-.79-2.483,2.924,2.924,0,0,0-2.124-.919A2.79,2.79,0,0,0-4480.86,160.966Zm10.253,11.56a8.047,8.047,0,0,1-2.183-5.97,8.5,8.5,0,0,1,2.381-6.3,8.513,8.513,0,0,1,6.344-2.419,12.485,12.485,0,0,1,4.4.718v3.425a8.5,8.5,0,0,0-4.445-1.019,4.686,4.686,0,0,0-3.575,1.472,5.538,5.538,0,0,0-1.378,3.942,5.569,5.569,0,0,0,1.241,3.879,4.287,4.287,0,0,0,3.352,1.373,4.524,4.524,0,0,0,2.011-.378v-3.187h-3.154v-2.922h6.665l.013,8.174a10.96,10.96,0,0,1-5.709,1.371c-.15.009-.3.014-.45.014A8.08,8.08,0,0,1-4470.607,172.526Zm-29.939-.012a8.051,8.051,0,0,1-2.185-5.97,8.5,8.5,0,0,1,2.384-6.3,8.507,8.507,0,0,1,6.343-2.419,12.484,12.484,0,0,1,4.394.718v3.425a8.5,8.5,0,0,0-4.433-1.007,4.683,4.683,0,0,0-3.573,1.472,5.542,5.542,0,0,0-1.378,3.942,5.57,5.57,0,0,0,1.24,3.879,4.29,4.29,0,0,0,3.352,1.373,4.522,4.522,0,0,0,2.011-.378v-3.187h-3.142v-2.922h6.667v8.174a10.964,10.964,0,0,1-5.723,1.359c-.149.009-.3.014-.45.014A8.077,8.077,0,0,1-4500.546,172.514Zm.21-24.356c0-1.462,1.9-2.77,4.965-3.778a53.028,53.028,0,0,0,15.679,2.027,53.017,53.017,0,0,0,15.576-2.027c3.042,1.008,4.928,2.317,4.893,3.778,0,3.2-9.2,5.781-20.557,5.781S-4500.336,151.344-4500.336,148.158Zm42.03-.252c0-3.9-9.67-7.091-21.611-7.091s-21.61,3.162-21.61,7.066c0,1.36,1.167,2.619,3.191,3.7-3.663-1.386-5.513-3.187-5.513-5.164,0-4.344,10.5-7.9,23.832-7.933h.2c13.38.037,23.833,3.589,23.833,7.959,0,1.977-1.851,3.778-5.51,5.163C-4459.473,150.526-4458.306,149.266-4458.306,147.906Zm3.067-.542a3.049,3.049,0,0,0-.25-2.518c-2.048-3.867-11.605-7.342-24.39-7.292s-22.357,3.425-24.392,7.292a3.052,3.052,0,0,0-.248,2.518,4.033,4.033,0,0,0,1.451,1.776,4.466,4.466,0,0,1-2.89-5.126c1.115-5.453,11.592-9.042,25.94-9.118h.2c14.349.076,24.825,3.665,25.993,9.118a4.467,4.467,0,0,1-2.892,5.126A4.046,4.046,0,0,0-4455.239,147.364Zm-4.3-10.125c-5.189-2.481-11.4-3.123-19.986-3.123h-.794c-8.588.025-14.894.692-19.985,3.123s-6.939,5.175-6.393,8.387c-.856-2.393,0-6.07,3.414-8.588,5.041-3.376,12.227-5.037,22.8-5.037h1.129c10.563.062,17.788,1.674,22.754,5.037,3.461,2.518,4.307,6.2,3.449,8.588C-4452.6,142.427-4454.345,139.72-4459.534,137.239Z" transform="translate(4507 -132)"/></g><g transform="translate(-437.225 -20)"><path class="d" d="M-4548.236,129.244a3.833,3.833,0,0,1-1.1-2.9,4.048,4.048,0,0,1,1.2-3.031,4.369,4.369,0,0,1,3.192-1.173,6.464,6.464,0,0,1,2.212.347v1.667a4.408,4.408,0,0,0-2.235-.528,2.393,2.393,0,0,0-1.8.717,2.637,2.637,0,0,0-.7,1.917,2.655,2.655,0,0,0,.625,1.883,2.206,2.206,0,0,0,1.687.666,2.351,2.351,0,0,0,1.013-.183v-1.541h-1.579v-1.419h3.356v3.967a5.68,5.68,0,0,1-2.872.666A4.161,4.161,0,0,1-4548.236,129.244Zm-9.58.911v-2.732l-2.466-5.041h2l1.252,2.9q.033.081.179.634h.021a2.789,2.789,0,0,1,.169-.612l1.273-2.922h1.854l-2.532,5.009v2.764Zm-4.63,0-.553-1.729h-2.764l-.547,1.729h-1.9l2.83-7.773h2.075l2.765,7.773Zm-2.1-5.708-.846,2.634h1.99l-.836-2.612a3.45,3.45,0,0,1-.13-.7h-.042A3,3,0,0,1-4564.543,124.447Zm-9.664,5.708v-7.773h1.751v6.353h2.878v1.42Zm-6.748,0v-7.773h2.743q2.939,0,2.939,2.477a2.377,2.377,0,0,1-.844,1.895,3.34,3.34,0,0,1-2.251.724h-.835v2.677Zm1.752-4.006h.688q1.4,0,1.4-1.225,0-1.2-1.4-1.2h-.687Zm43.408,3.991-.533-1.668H-4539l-.529,1.668h-1.832l2.732-7.5h2.005l2.67,7.5Zm-2.026-5.511-.816,2.545h1.921l-.807-2.524a3.471,3.471,0,0,1-.125-.675h-.042A2.907,2.907,0,0,1-4537.822,124.629Zm14.207,5.441v-7.594h5.435v1.419h-3.563V125.4h3.3v1.344h-3.3v1.805h3.667v1.521Zm-2.833,0v-5.859l-.255-.028-1.318,5.887h-1.369l-1.315-5.887-.254.028v5.859h-1.482v-7.594h2.562l1.054,4.677h.252l1.046-4.677h2.562v7.594Zm-41.247-14.05a5.877,5.877,0,0,1-1.587-4.27,6.307,6.307,0,0,1,1.611-4.5,5.581,5.581,0,0,1,4.269-1.717,5.325,5.325,0,0,1,4.059,1.643,6.06,6.06,0,0,1,1.549,4.334,6.2,6.2,0,0,1-1.606,4.456,5.511,5.511,0,0,1-4.19,1.693A5.456,5.456,0,0,1-4567.695,116.02Zm2.011-7.17a4.35,4.35,0,0,0-.817,2.76,4.269,4.269,0,0,0,.817,2.756,2.622,2.622,0,0,0,2.144,1.014,2.643,2.643,0,0,0,2.166-.985,4.216,4.216,0,0,0,.8-2.735,4.589,4.589,0,0,0-.775-2.838,2.538,2.538,0,0,0-2.126-1.014A2.66,2.66,0,0,0-4565.684,108.85Zm-14.2,7.244a5.686,5.686,0,0,1-1.633-4.312,6.026,6.026,0,0,1,1.783-4.506,6.5,6.5,0,0,1,4.743-1.741,9.642,9.642,0,0,1,3.286.515v2.477a6.531,6.531,0,0,0-3.319-.784,3.563,3.563,0,0,0-2.678,1.067,3.917,3.917,0,0,0-1.034,2.849,3.928,3.928,0,0,0,.928,2.8,3.271,3.271,0,0,0,2.505.989,3.479,3.479,0,0,0,1.5-.27v-2.289h-2.347v-2.11h4.987v5.9a8.44,8.44,0,0,1-4.267.989A6.169,6.169,0,0,1-4579.889,116.094Zm24.376,1.361V105.732h4.153q6.249,0,6.248,5.715a5.778,5.778,0,0,1-1.705,4.374,6.284,6.284,0,0,1-4.543,1.635Zm2.641-2.141h1.31a3.537,3.537,0,0,0,2.693-1.03,3.912,3.912,0,0,0,.978-2.8,3.546,3.546,0,0,0-.97-2.638,3.7,3.7,0,0,0-2.719-.961h-1.291Z" transform="translate(5096.702 -73.916)"/><rect class="e" width="1" height="30" transform="translate(505 29)"/></g></svg>